<svg width="40" height="72" viewBox="0 0 40 72" xmlns="http://www.w3.org/2000/svg">
    <g fill="none" fill-rule="evenodd">
        <path d="M9 0h31v72H9a9 9 0 0 1-9-9V9a9 9 0 0 1 9-9z" fill="#242424"/>
        <path d="m17.312 15.28 1.04-.384c-.256-.528-.608-1.104-1.04-1.728h2.624v-1.024h-4.288c.144-.336.288-.688.416-1.04l-1.136-.224a10.171 10.171 0 0 1-2.112 3.504l.992.64c.496-.56.944-1.184 1.328-1.856h.976a13.79 13.79 0 0 1 1.2 2.112zm6.88 0 1.024-.384a14.811 14.811 0 0 0-1.008-1.728h2.928v-1.024h-4.704c.112-.32.224-.656.336-1.008l-1.088-.24a10.556 10.556 0 0 1-1.792 3.568l.96.624c.432-.576.816-1.216 1.152-1.92h.992c.464.688.864 1.392 1.2 2.112zM22.48 25.568V16.72h2.96v5.904c0 .32-.16.48-.48.48l-1.504-.048.288 1.104h1.584c.832 0 1.264-.432 1.264-1.28v-7.232h-5.248v9.92h1.136zm-3.264-.192 1.056-.48a19.973 19.973 0 0 0-1.648-3.312l-1.056.336c.24.416.48.864.72 1.344a45.45 45.45 0 0 1-3.248.752v-2.88h4.896v-5.488h-6.048v8.272c0 .16-.112.288-.32.368l.288 1.056c1.92-.368 3.536-.736 4.88-1.12.16.352.32.736.48 1.152zm-.432-7.44H15.04v-1.328h3.744v1.328zm0 2.256H15.04v-1.296h3.744v1.296zm-2.976 23.424v-1.072h8.416v1.04h1.152V29.712H14.64v13.904h1.168zm8.416-10.128h-8.416v-2.656h8.416v2.656zm0 3.872h-8.416v-2.816h8.416v2.816zm0 4.064h-8.416v-3.008h8.416v3.008zm-8.016 20.144c1.664-.416 3.28-.96 4.88-1.632l-.224-1.072a34.27 34.27 0 0 1-3.568 1.312v-3.44c.864-.672 1.584-1.392 2.144-2.192h7.328v-1.04h-6.176v-1.552h4.848v-1.056h-4.848v-1.52h5.776V48.32h-5.776v-1.36h-1.184v1.36h-5.776v1.056h5.776v1.52H14.56v1.056h4.848v1.552h-6.176v1.04h5.008c-1.184 1.376-3.04 2.496-5.6 3.392l.624 1.008a23.256 23.256 0 0 0 2.896-1.44v2.64c0 .192-.112.336-.336.432l.384.992zm10.4 0 .688-.992c-1.632-.544-2.992-1.376-4.048-2.464a8.823 8.823 0 0 0 2.864-1.968l-.784-.784c-.864.928-1.776 1.6-2.736 2.016a8.833 8.833 0 0 1-1.2-2.08l-.88.496c1.2 2.816 3.232 4.736 6.096 5.776z" fill="#F1F1F1" fill-rule="nonzero"/>
    </g>
</svg>
