<svg width="40" height="72" viewBox="0 0 40 72" xmlns="http://www.w3.org/2000/svg">
    <g fill="none" fill-rule="evenodd">
        <path d="M9 0h31v72H9a9 9 0 0 1-9-9V9a9 9 0 0 1 9-9z" fill="#242424"/>
        <path d="m15.712 14.096.752-.752c-.672-.736-1.504-1.472-2.496-2.192l-.768.72c1.056.784 1.904 1.52 2.512 2.224zM26.8 16.24v-.864H24c-.352 0-.512-.144-.512-.416v-.768h3.04V11.44h-4.016v3.952c0 .56.32.848.992.848H26.8zm-9.056.304a94.117 94.117 0 0 0 4.176-.56l-.224-.816c-.96.16-1.968.288-2.992.384v-1.344h2.992V11.44h-3.984v3.856a.54.54 0 0 1-.304.512l.336.736zm7.808-3.152h-2.064v-1.12h2.064v1.12zm-4.832.016h-2.016v-1.12h2.016v1.12zm-7.216 12.096c.736-1.392 1.296-2.08 1.696-2.08.128 0 .272.048.4.176.544.576 1.136.992 1.808 1.264.576.256 1.408.4 2.496.432.795.027 1.697.043 2.694.047l4.474.001.256-1.104c-1.643.044-3.003.075-4.081.08h-.287c-1.12 0-2.128-.016-2.992-.016-.912-.016-1.632-.128-2.144-.336a5.466 5.466 0 0 1-1.536-1.072 3.215 3.215 0 0 0-.432-.336c.32-.848.576-1.92.8-3.2v-.752h-2.08a20.326 20.326 0 0 0 1.92-2.752v-.88h-3.6V16h2.352c-.544.896-1.2 1.792-1.984 2.704v.864h2.32c-.192 1.056-.448 2-.784 2.848-.672.208-1.36.992-2.096 2.352l.8.736zM27.04 21.04v-.992h-2.544v-1.44h2.064v-.976h-2.064v-1.024h-1.04v1.024h-2.592v-1.024H19.84v1.024h-2.128v.976h2.128v1.44h-2.544v.992h9.744zm-3.584-.992h-2.592v-1.44h2.592v1.44zm2.752 3.776.56-.864c-1.008-.704-2.112-1.28-3.296-1.76l-.528.768a13.975 13.975 0 0 1 3.264 1.856zm-7.984-.096c1.216-.544 2.24-1.184 3.072-1.904l-.704-.624c-.8.64-1.808 1.216-2.992 1.712l.624.816zm8.208 13.68v-.976H21.04v-1.136h4.496V34.4H21.04v-1.056h4.496v-.896H21.04V31.36h5.088v-.96H20.96a18.571 18.571 0 0 0-.656-1.568l-1.168.208c.256.416.48.864.688 1.36h-3.44c.192-.416.384-.832.544-1.248l-1.072-.272a12.166 12.166 0 0 1-3.184 4.512l.64.896c.496-.448.944-.912 1.36-1.392v4.512h11.76zm-6.528-4.96h-4.16v-.96l.08-.128h4.08v1.088zm0 1.952h-4.16v-1.056h4.16V34.4zm0 2.032h-4.16v-1.136h4.16v1.136zm.72 7.184v-3.904h6.272v-1.04h-6.272v-.832h-1.152v.832h-6.368v1.04h6.368v3.904h1.152zm5.408-.128.832-.816c-1.072-.8-2.4-1.584-3.968-2.384l-.736.72c1.648.864 2.944 1.696 3.872 2.48zm-12.224-.016c1.632-.704 3.008-1.504 4.128-2.416l-.784-.688c-1.088.832-2.448 1.552-4.048 2.176l.704.928zm12.864 18.16.688-.912c-1.232-.832-2.224-1.824-2.992-2.976C25.376 55.792 25.92 53.36 26 50.48h1.088v-1.104h-4.224c.144-.736.272-1.536.384-2.368l-1.136-.208c-.336 2.912-.976 5.216-1.904 6.928l.72.896c.256-.432.512-.912.768-1.44.208 1.712.688 3.248 1.424 4.592a9.167 9.167 0 0 1-2.656 2.832l.624 1.008A10.926 10.926 0 0 0 23.76 58.8c.752 1.088 1.728 2.032 2.912 2.832zM13.36 61.6c1.424-.416 2.656-.928 3.712-1.504.912.384 1.84.848 2.768 1.36l.624-.816a23.677 23.677 0 0 0-2.432-1.152c.864-.608 1.536-1.312 2.016-2.096v-.736h-3.552c.144-.272.304-.56.48-.88h3.008v-2.608H17.2v-.832h2.56v-1.792h.72v-.96h-.72v-1.792H17.2v-.88h-1.056v.88H13.6v1.792h-.704v.96h.704v1.792h2.544v.832h-2.768v2.608h2.496c-.16.288-.336.576-.496.88h-2.592v.896h2.048a51.65 51.65 0 0 1-.912 1.408c.656.192 1.328.416 2 .672-.896.432-1.968.816-3.2 1.136l.64.832zm5.408-11.92H17.2v-1.056h1.568v1.056zm-2.624 0h-1.552v-1.056h1.552v1.056zm2.624 1.84H17.2v-1.072h1.568v1.072zm-2.624 0h-1.552v-1.072h1.552v1.072zm7.568 5.088c-.544-1.12-.896-2.384-1.056-3.792l-.928.288c.336-.784.624-1.664.88-2.624h2.336c-.064 2.384-.48 4.432-1.232 6.128zm-4.72-1.632H17.2v-1.024h1.792v1.024zm-2.848 0h-1.776v-1.024h1.776v1.024zm.832 4.096c-.544-.224-1.088-.4-1.616-.544.192-.288.384-.624.608-.976h2.816c-.448.544-1.056 1.056-1.808 1.52z" fill="#F1F1F1" fill-rule="nonzero"/>
    </g>
</svg>
