<svg width="22" height="22" viewBox="0 0 22 22" xmlns="http://www.w3.org/2000/svg">
    <path d="M11 .917C16.569.917 21.083 5.43 21.083 11S16.57 21.083 11 21.083.917 16.57.917 11 5.43.917 11 .917zm0 .916a9.167 9.167 0 1 0 0 18.334 9.167 9.167 0 0 0 0-18.334zm0 3.209A5.958 5.958 0 1 1 5.042 11a.458.458 0 0 1 .916 0 5.042 5.042 0 1 0 1.153-3.209h1.872l.083.008a.458.458 0 0 1-.083.91h-2.75L6.151 8.7a.458.458 0 0 1-.376-.451V5.5l.007-.082a.458.458 0 0 1 .451-.376l.083.007a.458.458 0 0 1 .376.451v1.384A5.948 5.948 0 0 1 11 5.042z" fill="#8711AA" fill-rule="evenodd"/>
</svg>
