<?xml version="1.0" encoding="UTF-8"?>
<svg width="180px" height="250px" viewBox="0 0 180 250" version="1.1" xmlns="http://www.w3.org/2000/svg" xmlns:xlink="http://www.w3.org/1999/xlink">
    <!-- Generator: Sketch 58 (84663) - https://sketch.com -->
    <title>posterPortrait</title>
    <desc>Created with Sketch.</desc>
    <g id="posterPortrait" stroke="none" stroke-width="1" fill="none" fill-rule="evenodd">
        <g>
            <rect id="Rectangle" fill-rule="nonzero" x="0" y="0" width="180" height="250"></rect>
            <path d="M60.1056707,139.303296 C53.97092,139.303296 49,134.412373 49,128.378652 C49,122.587312 53.575637,117.853162 59.3633355,117.476699 C59.903311,110.863328 65.5316381,105.661952 72.3950935,105.661952 C75.5101755,105.661952 78.3746668,106.735645 80.6174,108.528227 C84.4632837,103.931254 90.292922,101 96.8156163,101 C104.944607,101 111.988403,105.548497 115.466265,112.198998 C115.544902,112.198998 115.618297,112.196935 115.694837,112.196935 C124.699322,112.196935 132,119.37861 132,128.237349 C132,137.095058 124.699322,144.280858 115.694837,144.280858 C114.043456,144.280858 112.449742,144.037446 110.951441,143.587754 C108.557724,146.720131 104.750635,148.746843 100.460189,148.746843 C96.9299024,148.746843 93.7236013,147.370948 91.3655335,145.138987 C87.9956671,148.158942 83.5133462,150 78.596948,150 C70.9848663,150 64.4223292,145.592805 61.3974179,139.231098 C60.9738255,139.279574 60.5418451,139.303296 60.1056707,139.303296 Z M89,125 L84,125 L84,128.976618 L84,137 L87.4659459,137 C88.3081081,137 89,136.340841 89,135.533138 L89,125 Z M86.0021201,117 C84.3441696,117 83,118.344645 83,120.00106 C83,121.658537 84.3441696,123 86.0021201,123 C87.6568905,123 89,121.658537 89,120.00106 C89,118.344645 87.6568905,117 86.0021201,117 Z M65.9989396,117 C64.3414634,117 63,118.344645 63,120.00106 C63,121.658537 64.3414634,123 65.9989396,123 C67.659597,123 69,121.658537 69,120.00106 C69,118.344645 67.659597,117 65.9989396,117 Z M79.0833465,118 L73.8470931,118 L69,135.557767 C73.0011817,137.27394 77.7202615,137.376176 82,136.299225 L82,131.85941 C79.7817867,132.541313 77.3853789,132.729904 75.0893335,132.450988 L79.0833465,118 Z M107,125 L111.387237,137 L116.167391,137 C116.95122,137 117.836285,136.340841 118.130972,135.533138 L122,125 L117.362178,125 L114.558637,132.633457 L112.264283,126.363707 C111.991647,125.61274 111.171734,125 110.443034,125 L107,125 Z M105,125 L91,125 L91,129.438752 L95.6490297,129.438752 L95.6490297,137 L98.9081329,137 C99.7048477,137 100.35504,136.340841 100.35504,135.533138 L100.35504,129.438752 L103.655862,129.438752 C104.394578,129.438752 105,128.823949 105,128.072982 L105,125 Z" id="Combined-Shape" fill-opacity="0.1" fill="#5E0C75"></path>
        </g>
    </g>
</svg>