<?xml version="1.0" encoding="UTF-8"?>
<svg width="180px" height="100px" viewBox="0 0 180 100" version="1.1" xmlns="http://www.w3.org/2000/svg" xmlns:xlink="http://www.w3.org/1999/xlink">
    <!-- Generator: Sketch 58 (84663) - https://sketch.com -->
    <title>Artboard</title>
    <desc>Created with Sketch.</desc>
    <g id="Artboard" stroke="none" stroke-width="1" fill="none" fill-rule="evenodd">
        <g id="posterLandscape" fill-rule="nonzero">
            <rect id="Rectangle" x="0" y="0" width="180" height="100"></rect>
            <path d="M67.4296055,60.8447272 C62.773108,60.8447272 59,57.1615623 59,52.6178012 C59,48.2565673 62.4730739,44.6914625 66.8661462,44.4079629 C67.2760071,39.4276901 71.5481108,35.510735 76.7577216,35.510735 C79.1221814,35.510735 81.2964339,36.3192915 82.9987494,37.6692157 C85.9179141,34.2074135 90.3428203,32 95.293781,32 C101.463978,32 106.810475,35.4252968 109.450297,40.4335312 C109.509986,40.4335312 109.565695,40.4319778 109.623792,40.4319778 C116.458521,40.4319778 122,45.8402185 122,52.5113918 C122,59.1817883 116.458521,64.5931359 109.623792,64.5931359 C108.370334,64.5931359 107.160647,64.409832 106.023383,64.0711859 C104.206465,66.4300581 101.316747,67.9562958 98.0601433,67.9562958 C95.3805283,67.9562958 92.9468299,66.9201629 91.1569712,65.2393597 C88.5991208,67.5135703 85.1968773,68.9 81.4651533,68.9 C75.6873081,68.9 70.7061053,65.5811127 68.4100883,60.7903574 C68.0885663,60.8268628 67.7606776,60.8447272 67.4296055,60.8447272 Z M89.6,50 L86,50 L86,52.9824637 L86,59 L88.4954811,59 C89.1018378,59 89.6,58.5056305 89.6,57.8998539 L89.6,50 Z M87.3515901,43.7 C86.1081272,43.7 85.1,44.7084836 85.1,45.9507953 C85.1,47.1939024 86.1081272,48.2 87.3515901,48.2 C88.5926678,48.2 89.6,47.1939024 89.6,45.9507953 C89.6,44.7084836 88.5926678,43.7 87.3515901,43.7 Z M72.0492047,43.7 C70.8060976,43.7 69.8,44.7084836 69.8,45.9507953 C69.8,47.1939024 70.8060976,48.2 72.0492047,48.2 C73.2946978,48.2 74.3,47.1939024 74.3,45.9507953 C74.3,44.7084836 73.2946978,43.7 72.0492047,43.7 Z M81.9788562,44.6 L77.9912478,44.6 L74.3,57.9069394 C77.3470537,59.2076177 80.9408146,59.2851017 84.2,58.4688866 L84.2,55.1039739 C82.5107452,55.6207848 80.6857886,55.7637164 78.9372617,55.552328 L81.9788562,44.6 Z M103.1,50 L106.522045,59 L110.250565,59 C110.861951,59 111.552302,58.5056305 111.782158,57.8998539 L114.8,50 L111.182499,50 L108.995737,55.7250924 L107.206141,51.02278 C106.993485,50.4595547 106.353953,50 105.785566,50 L103.1,50 Z M101.3,50 L90.5,50 L90.5,53.3290639 L94.0863944,53.3290639 L94.0863944,59 L96.6005596,59 C97.2151683,59 97.7167454,58.5056305 97.7167454,57.8998539 L97.7167454,53.3290639 L100.263093,53.3290639 C100.83296,53.3290639 101.3,52.8679618 101.3,52.3047365 L101.3,50 Z" id="Combined-Shape" fill-opacity="0.1" fill="#5E0C75"></path>
        </g>
    </g>
</svg>