<svg width="48" height="48" viewBox="0 0 48 48" xmlns="http://www.w3.org/2000/svg">
    <path d="M32 16a2 2 0 0 1 2 2v10a2 2 0 0 1-2 2h-2.825l.968 1.614-1.286.772L27.425 30h-7.351l-1.43 2.386-1.287-.772.967-1.614H16a2 2 0 0 1-2-2V18a2 2 0 0 1 2-2h16zm0 1.5H16a.5.5 0 0 0-.492.41L15.5 18v10a.5.5 0 0 0 .41.492l.09.008h16a.5.5 0 0 0 .492-.41L32.5 28V18a.5.5 0 0 0-.41-.492L32 17.5zm-12.5 7V26H18v-1.5h1.5zm10.5 0V26h-9v-1.5h9zM19.5 20v1.5H18V20h1.5zM30 20v1.5h-9V20h9z" fill="#FFF" fill-rule="evenodd"/>
</svg>
