<svg width="48" height="48" viewBox="0 0 48 48" xmlns="http://www.w3.org/2000/svg">
    <g fill="none" fill-rule="evenodd">
        <circle stroke-opacity=".499" stroke="#C872E1" fill-opacity=".9" fill="#222" cx="24" cy="24" r="23.5"/>
        <path d="M30.5 19a1 1 0 0 1 1 1v11a1 1 0 0 1-1 1h-16a1 1 0 0 1-1-1V20a1 1 0 0 1 1-1h16zm3-3a1 1 0 0 1 1 1v11a1 1 0 0 1-1 1H33V17.5H16.5V17a1 1 0 0 1 1-1h16zm-12.37 7.5a.129.129 0 0 0-.123.08l-.007.036v3.768c0 .02.006.04.017.057a.134.134 0 0 0 .127.058l.049-.014 3.741-1.884a.123.123 0 0 0 .05-.044.106.106 0 0 0-.018-.135l-.032-.023-3.741-1.884a.141.141 0 0 0-.064-.015z" fill="#C872E1" fill-rule="nonzero"/>
    </g>
</svg>
