<?xml version="1.0" encoding="utf-8"?>
<!-- Generator: Adobe Illustrator 20.1.0, SVG Export Plug-In . SVG Version: 6.00 Build 0)  -->
<svg version="1.1" id="圖層_5" xmlns="http://www.w3.org/2000/svg" xmlns:xlink="http://www.w3.org/1999/xlink" x="0px" y="0px"
	 viewBox="0 0 115 102" style="enable-background:new 0 0 115 102;" xml:space="preserve">
<style type="text/css">
	.st0{fill:#CCCCCC;}
</style>
<g>
	<path class="st0" d="M45.2,98.1V52.5L2,2.7h109.4L68.2,51.9v37.5L45.2,98.1z M6.4,4.7l40.8,47.1v43.5l19-7.2V51.1L107,4.7H6.4z"/>
</g>
<g>
	<path class="st0" d="M64.2,35.7c-3.3,0-6-2.7-6-6s2.7-6,6-6c3.3,0,6,2.7,6,6S67.5,35.7,64.2,35.7z M64.2,25.7c-2.2,0-4,1.8-4,4
		s1.8,4,4,4c2.2,0,4-1.8,4-4S66.4,25.7,64.2,25.7z"/>
</g>
<g>
	<path class="st0" d="M50.2,35.7c-3.3,0-6-2.7-6-6s2.7-6,6-6s6,2.7,6,6S53.5,35.7,50.2,35.7z M50.2,25.7c-2.2,0-4,1.8-4,4s1.8,4,4,4
		s4-1.8,4-4S52.4,25.7,50.2,25.7z"/>
</g>
<g>
	<path class="st0" d="M57.2,47.7c-3.3,0-6-2.7-6-6s2.7-6,6-6s6,2.7,6,6S60.5,47.7,57.2,47.7z M57.2,37.7c-2.2,0-4,1.8-4,4s1.8,4,4,4
		s4-1.8,4-4S59.4,37.7,57.2,37.7z"/>
</g>
</svg>
