<?xml version="1.0" encoding="UTF-8"?>
<svg width="167px" height="35px" viewBox="0 0 323 70" version="1.1" xmlns="http://www.w3.org/2000/svg" xmlns:xlink="http://www.w3.org/1999/xlink">
    <title>logo/color with name 2</title>
    <g id="logo/color-with-name-2" stroke="none" stroke-width="1" fill="none" fill-rule="evenodd">
        <g id="Group">
            <path d="M15.6256443,54.4543123 C16.2414707,54.4543123 16.8477936,54.41841 17.4427123,54.3522743 C21.6983767,63.3939803 30.9889921,70 41.6994295,70 C48.6160722,70 54.8598675,67.0427858 59.6040116,62.753408 C62.9169295,65.9279255 67.4291883,67.8798758 72.3938133,67.8798758 C78.4323332,67.8798758 83.7847009,65.000135 87.1546397,60.5501417 C89.2625146,61.1869348 91.5053391,61.5289513 93.827993,61.5289513 C106.49615,61.5289513 117.352941,51.344041 117.352941,38.7498988 C117.352941,26.1538669 106.49615,15.9179376 93.827993,15.9179376 L93.5067749,15.9179376 C88.6124756,6.46618977 78.7041331,0 67.2695296,0 C58.0910554,0 49.891441,4.17033338 44.4839531,10.7045485 C41.3249919,8.15170738 37.2955105,6.62491564 32.9105986,6.62491564 C23.255049,6.62491564 15.3405395,14.0226751 14.5840614,23.423404 C6.43956731,23.958159 0,30.6945607 0,38.9218518 C0,47.5006074 6.99837274,54.4543123 15.6256443,54.4543123" id="Fill-1" fill="#5D0C75"></path>
            <path d="M41.774764,23.6764706 L36.0892533,44.8194132 C39.3555576,45.2254325 42.7664884,44.9485161 45.9238532,43.9549849 L45.9238532,50.4475522 C39.8345154,52.01924 33.1140802,51.8714265 27.4210565,49.3642103 L34.3218052,23.6764706 L41.774764,23.6764706 Z M55.4306957,33.5030741 L55.4306957,48.338684 C55.4306957,49.4725445 54.5009542,50.3968466 53.3589685,50.3968466 L48.6895997,50.3968466 L48.6895997,33.5030741 L55.4306957,33.5030741 Z M85.1031638,33.5030741 C86.1606274,33.5030741 87.3552045,34.3731156 87.7515186,35.4227785 L91.089197,44.2522958 L95.1687904,33.5030741 L101.911765,33.5030741 L96.2844803,48.338684 C95.8543574,49.4725445 94.5677453,50.3968466 93.4313945,50.3968466 L86.4780543,50.3968466 L80.095707,33.5030741 L85.1031638,33.5030741 Z M78.2615804,33.5030741 L78.2615804,37.8308287 C78.2615804,38.8917179 77.3919434,39.7542751 76.3344797,39.7542751 L71.6068846,39.7542751 L71.6068846,48.338684 C71.6068846,49.4725445 70.6733865,50.3968466 69.5351574,50.3968466 L64.8601537,50.3968466 L64.8601537,39.7542751 L58.2092144,39.7542751 L58.2092144,33.5030741 L78.2615804,33.5030741 Z M52.0593964,23.7056591 C54.3358546,23.7056591 56.1821899,25.5486501 56.1821899,27.816371 C56.1821899,30.0840919 54.3358546,31.9270829 52.0593964,31.9270829 C49.7829382,31.9270829 47.9366029,30.0840919 47.9366029,27.816371 C47.9366029,25.5486501 49.7829382,23.7056591 52.0593964,23.7056591 Z M23.6853736,23.7056591 C25.96371,23.7056591 27.8062888,25.5486501 27.8062888,27.816371 C27.8062888,30.0840919 25.96371,31.9270829 23.6853736,31.9270829 C21.4070371,31.9270829 19.5588235,30.0840919 19.5588235,27.816371 C19.5588235,25.5486501 21.4070371,23.7056591 23.6853736,23.7056591 Z" id="Combined-Shape" fill="#FFFFFF"></path>
            <path d="M170.704371,21.3133555 L170.704371,25.3921569 L174.530992,25.3921569 C174.264019,28.0207177 173.374107,30.5586385 172.12823,32.7339993 C172.929151,33.5497595 173.730071,34.2748798 174.708975,34.90936 L174.708975,34.90936 L174.619984,34.90936 L174.619984,37.9004809 C173.196124,37.1753607 171.861256,36.1783204 170.704371,34.90936 L170.704371,34.90936 L170.704371,49.4117647 L167.945643,49.4117647 L167.945643,37.5379208 C166.788758,38.4443211 165.453889,39.1694414 164.03003,39.6226415 L164.03003,39.6226415 L164.03003,36.9940807 C167.67867,35.4532001 170.348406,32.1901591 171.594283,27.9300777 L171.594283,27.9300777 L164.03003,27.9300777 L164.03003,25.3921569 L167.945643,25.3921569 L167.945643,21.3133555 L170.704371,21.3133555 Z M275.180044,35.5438402 C275.891974,35.5438402 276.514912,36.1783204 276.514912,36.9034406 L276.514912,36.9034406 L276.514912,40.2571217 C276.514912,40.982242 275.980965,41.6167222 275.180044,41.6167222 L275.180044,41.6167222 L270.285528,41.6167222 L270.285528,44.9704033 C270.285528,47.5989641 268.149739,49.5930448 265.657985,49.3211247 L265.657985,49.3211247 L263.967152,49.1398446 L263.967152,46.6019238 L265.924959,46.7832038 C266.814871,46.8738439 267.437809,46.2393637 267.437809,45.4236034 L267.437809,45.4236034 L267.437809,41.6167222 L262.009346,41.6167222 C261.297416,41.6167222 260.674478,40.982242 260.674478,40.2571217 L260.674478,40.2571217 L260.674478,36.9034406 C260.674478,36.1783204 261.297416,35.5438402 262.009346,35.5438402 L262.009346,35.5438402 Z M319.586655,21.9478357 C320.387576,21.9478357 321.099505,22.5823159 321.099505,23.4887162 L321.099505,23.4887162 L321.099505,37.9004809 C321.099505,38.7162412 320.476567,39.4413615 319.586655,39.4413615 L319.586655,39.4413615 L317.539857,39.4413615 L317.539857,44.9704033 C317.539857,45.7861635 318.251787,46.4206437 319.052708,46.3300037 L319.052708,46.3300037 L323.235294,45.9674436 L323.235294,48.9585646 L319.23069,49.3211247 C316.738936,49.5024047 314.603147,47.5083241 314.603147,44.9704033 L314.603147,44.9704033 L314.603147,39.4413615 L312.022402,39.4413615 C311.755429,44.9704033 307.750825,49.3211247 302.856308,49.3211247 L302.856308,49.3211247 L302.23337,49.3211247 L302.23337,46.6925638 L302.856308,46.6925638 C306.326965,46.6925638 309.174684,43.5201628 309.441658,39.4413615 L309.441658,39.4413615 L307.483851,39.4413615 C306.68293,39.4413615 305.971001,38.8068812 305.971001,37.9004809 L305.971001,37.9004809 L305.971001,23.4887162 C305.971001,22.672956 306.593939,21.9478357 307.483851,21.9478357 L307.483851,21.9478357 Z M289.507628,39.2600814 C286.570918,43.5201628 282.566314,46.9644839 278.027763,49.3211247 L278.027763,49.3211247 L278.027763,46.4206437 C281.142455,44.6078431 284.079164,42.0699223 286.392936,39.2600814 L286.392936,39.2600814 Z M139.290476,29.7428783 C139.557449,32.008879 140.002405,34.2748798 140.447361,36.4502405 C141.159291,39.8039216 142.049203,43.2482427 143.206089,46.6925638 L143.206089,46.6925638 L149.96942,46.6925638 C151.126306,43.2482427 152.016218,39.8039216 152.728147,36.4502405 C153.173103,34.2748798 153.529068,32.008879 153.885033,29.7428783 L153.885033,29.7428783 L156.64376,29.7428783 C156.376787,32.0995191 155.931831,34.5467999 155.397883,37.0847207 C154.685954,40.4384018 153.885033,43.7014428 152.817139,46.7832038 L152.817139,46.7832038 L160.2924,46.7832038 L160.2924,49.3211247 L132.794118,49.3211247 L132.794118,46.7832038 L140.269379,46.7832038 C139.379467,43.7014428 138.489555,40.4384018 137.777625,37.0847207 C137.243678,34.5467999 136.798722,32.0995191 136.531748,29.7428783 L136.531748,29.7428783 Z M241.363386,21.3133555 L241.363386,28.6551979 L252.932243,28.6551979 L252.932243,31.2837588 L241.363386,31.2837588 L241.363386,46.6925638 L255.423997,46.6925638 L255.423997,49.3211247 L228.904618,49.3211247 L228.904618,46.6925638 L238.337686,46.6925638 L238.337686,21.3133555 L241.363386,21.3133555 Z M300.097581,20.5882353 L300.097581,24.7576767 L304.013194,24.7576767 C303.657229,27.5675176 302.767317,30.1054384 301.52144,32.2807991 C302.23337,33.1871994 303.123282,33.9123196 304.102185,34.5467999 L304.102185,34.5467999 L304.191176,34.5467999 L304.191176,37.5379208 C302.767317,36.7221606 301.343458,35.7251202 300.186572,34.4561598 L300.186572,34.4561598 L300.186572,49.3211247 L297.338854,49.3211247 L297.338854,37.1753607 C296.092977,38.081761 294.758109,38.8975213 293.33425,39.3507214 L293.33425,39.3507214 L293.33425,36.6315205 C296.982889,35.09064 299.741616,31.7369589 300.987493,27.3862375 L300.987493,27.3862375 L293.33425,27.3862375 L293.33425,24.7576767 L297.338854,24.7576767 L297.338854,20.5882353 L300.097581,20.5882353 Z M218.047691,20.6788753 L218.047691,23.3980762 L223.476154,23.3980762 C224.366067,23.3980762 225.077996,24.1231964 224.989005,24.9389567 L224.989005,24.9389567 L224.989005,32.8246393 C224.989005,33.6403996 224.366067,34.3655198 223.476154,34.3655198 L223.476154,34.3655198 L218.492647,34.3655198 C218.848612,35.9064003 219.47155,37.3566408 220.18348,38.7162412 C220.984401,38.081761 221.69633,37.2660007 222.230278,36.3596004 L222.230278,36.3596004 L225.077996,36.3596004 C224.366067,38.2630411 223.12019,39.8039216 221.607339,40.8916019 C222.586242,42.1605623 223.743128,43.2482427 225.077996,44.064003 L225.077996,44.064003 L225.077996,46.9644839 C222.319269,45.6955235 219.827515,43.3388827 218.047691,40.1664817 L218.047691,40.1664817 L218.047691,45.2423233 C218.047691,47.5989641 216.089885,49.5024047 213.776113,49.2304846 L213.776113,49.2304846 L211.373351,48.9585646 L211.373351,46.6925638 L214.043087,46.9644839 C214.755016,47.0551239 215.377955,46.4206437 215.377955,45.6955235 L215.377955,45.6955235 L215.377955,34.3655198 L209.8605,34.3655198 C209.059579,34.3655198 208.34765,33.7310396 208.34765,32.8246393 L208.34765,32.8246393 L208.34765,24.9389567 C208.34765,24.1231964 208.970588,23.3980762 209.8605,23.3980762 L209.8605,23.3980762 L215.288964,23.3980762 L215.288964,20.6788753 L218.047691,20.6788753 Z M189.926471,22.4010359 C190.727391,22.4010359 191.439321,23.1261561 191.439321,23.9419164 L191.439321,23.9419164 L191.439321,38.081761 C191.439321,38.8975213 190.727391,39.6226415 189.926471,39.6226415 L189.926471,39.6226415 L187.968664,39.6226415 L187.968664,45.2423233 C187.968664,46.0580836 188.591603,46.6925638 189.303532,46.6019238 L189.303532,46.6019238 L193.57511,46.1487236 L193.57511,48.8679245 L189.659497,49.2304846 C187.256734,49.4117647 185.120946,47.5083241 185.120946,44.9704033 L185.120946,44.9704033 L185.120946,39.5320015 L182.540201,39.5320015 C182.273227,44.9704033 178.357614,49.2304846 173.552089,49.2304846 L173.552089,49.2304846 L172.929151,49.2304846 L172.929151,46.6925638 C177.111737,46.6925638 179.781473,43.7920829 180.048447,39.6226415 L180.048447,39.6226415 L178.09064,39.6226415 C177.28972,39.6226415 176.57779,38.8975213 176.57779,38.081761 L176.57779,38.081761 L176.57779,23.9419164 C176.57779,23.1261561 177.28972,22.4010359 178.09064,22.4010359 L178.09064,22.4010359 Z M203.18616,20.6788753 L199.270547,27.6581576 L201.139362,27.6581576 L203.453134,23.4887162 L206.389843,23.4887162 L200.694406,33.9123196 L203.809098,33.9123196 L203.809098,30.2867185 L206.389843,30.2867185 L206.389843,34.90936 C206.389843,35.7251202 205.677914,36.4502405 204.965984,36.3596004 L204.965984,36.3596004 L203.542125,36.3596004 L203.542125,49.2304846 L200.783397,49.2304846 L200.783397,36.3596004 L199.003573,36.3596004 C197.579714,36.3596004 197.045767,35.1812801 197.846688,33.7310396 L197.846688,33.7310396 L199.804494,30.1960784 L197.579714,30.1960784 C196.155855,30.1960784 195.621908,29.017758 196.422828,27.5675176 L196.422828,27.5675176 L200.24945,20.6788753 L203.18616,20.6788753 Z M265.035047,42.8856826 C263.878161,45.7861635 262.098337,48.1428043 259.072636,49.2304846 L259.072636,49.2304846 L259.072636,46.6019238 C260.674478,45.6048835 261.56439,44.5172031 262.276319,42.8856826 L262.276319,42.8856826 Z M274.290132,42.8856826 C275.269035,45.0610433 275.980965,46.6925638 276.603903,49.2304846 L276.603903,49.2304846 L274.11215,49.2304846 C273.489211,47.145764 272.68829,44.6984832 271.620396,42.8856826 L271.620396,42.8856826 Z M199.626512,37.7192009 C199.626512,40.7103219 199.448529,44.245283 198.7366,47.236404 L198.7366,47.236404 L196.244846,47.236404 C196.867784,44.4265631 197.223749,40.5290418 197.223749,37.7192009 L197.223749,37.7192009 Z M214.31006,36.4502405 L214.31006,37.1753607 C214.31006,41.7073622 211.818307,45.5142434 208.258659,46.9644839 L208.258659,46.9644839 L208.258659,44.064003 C210.038483,42.9763226 211.28436,41.072882 211.640324,38.7162412 L211.640324,38.7162412 L208.258659,38.7162412 L208.258659,36.4502405 L214.31006,36.4502405 L214.31006,36.4502405 Z M206.478835,37.6285609 C207.190764,39.8039216 207.546729,41.8886422 207.813703,44.064003 L207.813703,44.064003 L205.499931,44.064003 C205.232958,41.7073622 204.788002,39.8945616 204.254054,37.6285609 L204.254054,37.6285609 Z M289.507628,30.6492786 C288.261751,32.1901591 286.7489,33.6403996 285.058068,35.09064 C282.744296,36.9940807 280.341534,38.4443211 278.027763,39.4413615 L278.027763,39.4413615 L278.027763,36.5408805 C279.985569,35.5438402 281.854384,34.2748798 283.456226,33.0059193 C284.346138,32.2807991 285.23605,31.4650388 286.036971,30.6492786 L286.036971,30.6492786 Z M273.934167,37.7192009 L263.433205,37.7192009 L263.433205,39.3507214 L273.934167,39.3507214 L273.934167,37.7192009 Z M188.947567,24.9389567 L179.069544,24.9389567 L179.069544,27.2955975 L186.633796,27.2955975 L186.633796,29.8335183 L179.069544,29.8335183 L179.069544,32.1901591 L186.633796,32.1901591 L186.633796,34.7280799 L179.069544,34.7280799 L179.069544,37.0847207 L188.947567,37.0847207 L188.947567,24.9389567 Z M318.607752,24.3951165 L308.551745,24.3951165 L308.551745,26.8423973 L316.29398,26.8423973 L316.29398,29.4709582 L308.551745,29.4709582 L308.551745,31.827599 L316.29398,31.827599 L316.29398,34.4561598 L308.551745,34.4561598 L308.551745,36.8128006 L318.607752,36.8128006 L318.607752,24.3951165 Z M275.180044,21.6759156 C275.891974,21.6759156 276.514912,22.3103959 276.514912,23.0355161 L276.514912,23.0355161 L276.514912,29.1083981 C276.514912,29.8335183 275.891974,30.4679985 275.180044,30.4679985 L275.180044,30.4679985 L270.018554,30.4679985 L270.018554,31.827599 L278.027763,31.827599 L278.027763,34.1842397 L259.072636,34.1842397 L259.072636,31.827599 L267.170836,31.827599 L267.170836,30.4679985 L262.009346,30.4679985 C261.297416,30.4679985 260.674478,29.8335183 260.674478,29.1083981 L260.674478,29.1083981 L260.674478,23.0355161 C260.674478,22.3103959 261.297416,21.6759156 262.009346,21.6759156 L262.009346,21.6759156 Z M222.497251,25.754717 L210.839404,25.754717 L210.839404,27.8394377 L220.450454,27.8394377 L220.450454,30.1054384 L210.839404,30.1054384 L210.839404,32.0995191 L222.497251,32.0995191 L222.497251,25.754717 Z M288.706707,21.7665557 C287.193857,24.3951165 284.880085,26.6611173 281.854384,28.2019978 C280.608507,28.927118 279.273639,29.3803182 278.027763,29.7428783 L278.027763,29.7428783 L278.027763,27.0236774 C279.006666,26.7517573 279.896578,26.3891972 280.697499,25.935997 C282.566314,24.9389567 284.257147,23.4887162 285.592015,21.7665557 L285.592015,21.7665557 Z M273.845176,23.9419164 L263.344214,23.9419164 L263.344214,25.2108768 L272.68829,25.2108768 L272.68829,27.1143174 L263.344214,27.1143174 L263.344214,28.2926378 L273.845176,28.2926378 L273.845176,23.9419164 Z M148.011614,21.2227155 L148.011614,25.3015168 L160.381391,25.3015168 L160.381391,27.8394377 L132.794118,27.8394377 L132.794118,25.3015168 L145.252886,25.3015168 L145.252886,21.2227155 L148.011614,21.2227155 Z" id="Combined-Shape" fill="#666666"></path>
        </g>
    </g>
</svg>