<svg width="72" height="26" viewBox="0 0 72 26" xmlns="http://www.w3.org/2000/svg">
    <g fill="none" fill-rule="evenodd">
        <path d="M59 0c7.18 0 13 5.794 13 12.942 0 7.148-5.82 12.943-13 12.943H13c-7.18 0-13-5.795-13-12.943S5.82 0 13 0h46zm0 .996H13C6.373.996 1 6.344 1 12.942c0 6.497 5.209 11.782 11.695 11.943l.305.004h46c6.627 0 12-5.349 12-11.947C71 6.446 65.791 1.16 59.305 1L59 .996z" fill="#FFF"/>
        <text font-family="PingFangTC-Regular, PingFang TC" font-size="12" fill="#FFF">
                        <tspan x="32.636" y="18.636">正序</tspan>
                    </text>
        <path d="M10 4h18v18H10z"/>
        <path d="M14.886 6.625c.28 0 .51.208.547.477l.005.075v10.315l1.14-1.14a.552.552 0 0 1 .724-.049l.056.05a.552.552 0 0 1 .05.724l-.05.057-2.08 2.08a.552.552 0 0 1-.725.05l-.056-.05-2.084-2.083a.552.552 0 0 1 .724-.83l.057.05 1.138 1.138.001-10.312c0-.305.248-.552.553-.552zM25.198 18.03a.552.552 0 0 1 .075 1.098l-.075.005h-5.156a.552.552 0 0 1-.075-1.098l.075-.005h5.156zm-.737-3.68a.552.552 0 0 1 .075 1.1l-.075.004h-4.42a.552.552 0 0 1-.074-1.098l.075-.005h4.419zm-.737-3.678a.552.552 0 0 1 .075 1.098l-.075.005h-3.682a.552.552 0 0 1-.075-1.098l.075-.005h3.682zm-.736-3.68a.552.552 0 0 1 .075 1.1l-.075.005h-2.946a.552.552 0 0 1-.075-1.1l.075-.004h2.946z" fill="#FFF"/>
    </g>
</svg>
