<svg width="72" height="26" viewBox="0 0 72 26" xmlns="http://www.w3.org/2000/svg">
    <g fill="none" fill-rule="evenodd">
        <rect fill="#8711AA" width="72" height="26" rx="13"/>
        <path d="M44.852 18.672v-.84H40.28v-3.84h3.456v-.828H40.28V9.672h4.068V8.82h-9.48v.852h4.536v8.16h-2.52v-5.76h-.84v5.76H34.16v.84h10.692zm1.8.504c.816-1.536 1.236-3.564 1.284-6.108V9.984h8.856v-.792h-4.344a10.678 10.678 0 0 0-.492-1.044l-.876.144c.18.276.348.576.504.9h-4.512v3.876c-.024 2.352-.384 4.2-1.068 5.532l.648.576zm5.16.048c.708 0 1.068-.36 1.068-1.068v-3.204h2.76a8.815 8.815 0 0 1-1.38 1.728l.648.516c.612-.648 1.164-1.44 1.656-2.376v-.672h-3.048l.18-.18a6.181 6.181 0 0 0-.54-.384 13.13 13.13 0 0 0 2.4-2.016v-.624h-6.372v.744h5.292c-.6.552-1.26 1.044-1.98 1.464-.48-.3-1.008-.6-1.584-.888l-.516.504c.948.48 1.74.948 2.364 1.38h-4.272v.804h3.528v3c0 .336-.168.516-.492.516-.528 0-1.08-.024-1.656-.06l.18.816h1.764z" fill="#FFF" fill-rule="nonzero"/>
        <path d="M10 4h18v18H10z"/>
        <path d="M14.886 6.625c.28 0 .51.208.547.477l.005.075v10.315l1.14-1.14a.552.552 0 0 1 .724-.049l.056.05a.552.552 0 0 1 .05.724l-.05.057-2.08 2.08a.552.552 0 0 1-.725.05l-.056-.05-2.084-2.083a.552.552 0 0 1 .724-.83l.057.05 1.138 1.138.001-10.312c0-.305.248-.552.553-.552zM25.198 18.03a.552.552 0 0 1 .075 1.098l-.075.005h-5.156a.552.552 0 0 1-.075-1.098l.075-.005h5.156zm-.737-3.68a.552.552 0 0 1 .075 1.1l-.075.004h-4.42a.552.552 0 0 1-.074-1.098l.075-.005h4.419zm-.737-3.678a.552.552 0 0 1 .075 1.098l-.075.005h-3.682a.552.552 0 0 1-.075-1.098l.075-.005h3.682zm-.736-3.68a.552.552 0 0 1 .075 1.1l-.075.005h-2.946a.552.552 0 0 1-.075-1.1l.075-.004h2.946z" fill="#FFF"/>
    </g>
</svg>
