<svg width="72" height="26" viewBox="0 0 72 26" xmlns="http://www.w3.org/2000/svg">
    <g fill="none" fill-rule="evenodd">
        <path d="M59 0c7.18 0 13 5.794 13 12.942 0 7.148-5.82 12.943-13 12.943H13c-7.18 0-13-5.795-13-12.943S5.82 0 13 0h46zm0 .996H13C6.373.996 1 6.344 1 12.942c0 6.497 5.209 11.782 11.695 11.943l.305.004h46c6.627 0 12-5.349 12-11.947C71 6.446 65.791 1.16 59.305 1L59 .996z" fill="#FFF"/>
        <path d="M36.656 18.344c1.584-.576 2.928-1.296 4.032-2.16 1.008.804 2.256 1.512 3.768 2.136l.468-.756c-1.428-.552-2.628-1.188-3.612-1.92a8.4 8.4 0 0 0 2.376-3.888v-.768h-7.176V8.612h7.92v-.84h-8.784v3.768c-.048 2.604-.6 4.644-1.68 6.108l.672.6c1.152-1.632 1.764-3.78 1.86-6.444h1.116c.408 1.428 1.212 2.7 2.412 3.816-1.032.792-2.316 1.452-3.852 1.992l.48.732zm3.984-3.24c-1.092-.96-1.824-2.052-2.208-3.3h4.392c-.432 1.248-1.152 2.34-2.184 3.3zm6.012 3.132c.816-1.536 1.236-3.564 1.284-6.108V9.044h8.856v-.792h-4.344a10.678 10.678 0 0 0-.492-1.044l-.876.144c.18.276.348.576.504.9h-4.512v3.876c-.024 2.352-.384 4.2-1.068 5.532l.648.576zm5.16.048c.708 0 1.068-.36 1.068-1.068v-3.204h2.76a8.815 8.815 0 0 1-1.38 1.728l.648.516c.612-.648 1.164-1.44 1.656-2.376v-.672h-3.048l.18-.18a6.181 6.181 0 0 0-.54-.384 13.13 13.13 0 0 0 2.4-2.016v-.624h-6.372v.744h5.292c-.6.552-1.26 1.044-1.98 1.464-.48-.3-1.008-.6-1.584-.888l-.516.504c.948.48 1.74.948 2.364 1.38h-4.272v.804h3.528v3c0 .336-.168.516-.492.516-.528 0-1.08-.024-1.656-.06l.18.816h1.764z" fill="#FFF" fill-rule="nonzero"/>
        <path d="M10 4h18v18H10z"/>
        <path d="M10 4h18v18H10z"/>
        <path d="M22.99 19.13c.31 0 .55-.25.55-.55a.56.56 0 0 0-.48-.55l-.07-.01h-2.95c-.31 0-.55.25-.55.55 0 .28.21.51.48.55l.07.01h2.95zm.74-3.67c.31 0 .55-.25.55-.55a.56.56 0 0 0-.48-.55l-.07-.01h-3.68c-.31 0-.55.25-.55.55 0 .28.21.51.48.55l.07.01h3.68zm.73-3.68c.31 0 .55-.25.55-.55a.56.56 0 0 0-.48-.55l-.07-.01h-4.42c-.31 0-.55.25-.55.55 0 .28.21.51.48.55l.07.01h4.42zm.74-3.68c.31 0 .55-.25.55-.55a.56.56 0 0 0-.48-.55l-.07-.01h-5.16c-.31 0-.55.25-.55.55 0 .28.21.51.48.55l.07.01h5.16zM14.89 6.63c.28 0 .51.21.55.48l.01.07V17.5l1.14-1.14c.2-.2.51-.21.72-.05l.06.05c.2.2.21.51.05.72l-.05.06-2.08 2.08c-.2.2-.51.21-.72.05l-.06-.05-2.08-2.08a.543.543 0 0 1 0-.78c.2-.2.51-.21.72-.05l.06.05 1.14 1.14V7.19c-.02-.32.23-.56.54-.56z" fill="#FFF"/>
    </g>
</svg>
