<svg width="44" height="24" viewBox="0 0 44 24" xmlns="http://www.w3.org/2000/svg">
    <g transform="translate(0 2)" fill="none" fill-rule="evenodd">
        <rect fill="#F60" width="44" height="20" rx="2"/>
        <path d="M9.712 15.248v-.528h3.984v.528h1.044v-4.8c.048.048.108.096.168.156l.708-.828c-.768-.576-1.68-1.116-2.724-1.62h2.424v-.984H13.96c.216-.348.42-.732.612-1.14l-.972-.336c-.18.516-.396 1.008-.636 1.476h-.732V5.564c1.128-.108 2.112-.264 2.952-.48l-.528-.9c-1.728.396-3.864.6-6.396.6l.324.936c.924 0 1.788-.024 2.604-.072v1.524h-.744a8.588 8.588 0 0 0-.504-1.224l-.936.36c.18.264.336.552.48.864H8.26v.984h2.028c-.552.576-1.344 1.068-2.376 1.464v-.612c-.288.168-.576.324-.876.468V7.46h.924V6.368h-.924V4.196H5.908v2.172H4.612V7.46h1.296v2.508c-.504.192-1.008.348-1.536.468l.288 1.128c.408-.144.828-.3 1.248-.468v2.58c0 .288-.144.432-.42.432s-.564-.024-.864-.072l.252 1.092h1.008c.768 0 1.152-.396 1.152-1.164V10.58c.288-.144.588-.288.876-.456v-.288l.468.756c.096-.048.192-.108.288-.156v4.812h1.044zm4.596-5.184h-5.04c.792-.54 1.416-1.176 1.86-1.908h.06v1.56h1.044V8.6c.78.456 1.476.948 2.076 1.464zm-3.072 1.896H9.712v-.972h1.524v.972zm2.46 0h-1.5v-.972h1.5v.972zm-2.46 1.812H9.712v-.924h1.524v.924zm2.46 0h-1.5v-.924h1.5v.924zm3.552 1.452c.864-1.272 1.368-3.168 1.536-5.688h1.284c-.012 2.268-.048 3.6-.12 3.984-.072.384-.312.576-.708.576-.276 0-.588-.024-.936-.06l.252.984c.408.036.684.06.852.06.924 0 1.452-.348 1.572-1.044.108-.696.168-2.556.168-5.556h-2.316c0-.168.012-.348.012-.54v-.972h2.82V5.864h-1.728a19.962 19.962 0 0 0-.756-1.824l-1.104.312c.264.492.504.996.708 1.512h-2.16v1.104h1.152v.972c-.024 2.988-.492 5.16-1.416 6.504l.888.78zm9.48-.048.768-.9a12.329 12.329 0 0 1-2.436-2.436c.792-1.356 1.224-2.976 1.308-4.848h.804V5.9h-3.348c.144-.492.264-1.02.372-1.584l-1.116-.192c-.324 1.944-.948 3.504-1.872 4.656l.684.864c.636-.72 1.164-1.596 1.572-2.652H25.3c-.072 1.44-.384 2.712-.924 3.804A11.444 11.444 0 0 1 23.38 8.6l-.9.504c.312.984.732 1.896 1.26 2.748-.696.936-1.62 1.704-2.772 2.292l.648 1.032c1.128-.636 2.052-1.416 2.784-2.352.636.864 1.416 1.644 2.328 2.352zm7.86.144V11.3h3.132v.684h1.14V6.188h-4.272V4.112h-1.176v2.076h-4.26v5.796h1.14V11.3h3.12v4.02h1.176zm-1.176-5.136h-3.12v-2.88h3.12v2.88zm4.308 0h-3.132v-2.88h3.132v2.88z" fill="#FFF" fill-rule="nonzero"/>
    </g>
</svg>
